Patient4_TMGait_0pt2_01_left_16_GRF.mot
version=1
nRows=45
nColumns=19
inDegrees=no
endheader
time	F1x	F1y	F1z	M1x	M1y	M1z	F2x	F2y	F2z	M2x	M2y	M2z	EC1x	EC1y	EC1z	EC2x	EC2y	EC2z
36.61	4.0157	-5.4763	1.3669	0.71198	-0.39993	-5.8123	5.4281	789.9491	-39.6978	290.7698	39.7909	735.2788	-0.0592	0.0182	-0.0073	-0.0462	0.0165	0.9585
36.6338	2.6611	-4.0549	0.98555	0.59863	-0.37048	-4.2119	1.3339	802.1672	-37.0505	296.1607	38.0471	744.0616	-0.0592	0.0182	-0.0073	-0.0462	0.0165	0.9585
36.6576	1.5014	-2.8308	0.64941	0.50307	-0.33382	-2.8255	-2.6995	817.1514	-34.3371	302.5667	36.1938	755.2993	-0.0592	0.0182	-0.0073	-0.0462	0.0165	0.9585
36.6814	0.60762	-1.8815	0.38421	0.42995	-0.29973	-1.7447	-6.3427	833.1085	-31.7684	309.2191	34.3265	767.4655	-0.0592	0.0182	-0.0073	-0.0462	0.0165	0.9585
36.7051	-0.017037	-1.2125	0.19682	0.37858	-0.27498	-0.97866	-9.3638	847.3764	-29.5441	315.0334	32.5548	778.1893	-0.0592	0.0182	-0.0073	-0.0462	0.0165	0.9585
36.7289	-0.40631	-0.79289	0.080437	0.34677	-0.26317	-0.49492	-11.6141	857.1281	-27.7961	318.8987	30.9586	784.9191	-0.0592	0.0182	-0.0073	-0.0462	0.0165	0.9585
36.7527	-0.61285	-0.58093	0.021516	0.33449	-0.26516	-0.24573	-13.0268	860.2157	-26.5362	320.0101	29.5453	785.7006	-0.0592	0.0182	-0.0073	-0.0462	0.0165	0.9585
36.7765	-0.69434	-0.53961	0.0049185	0.34483	-0.27914	-0.18557	-13.6168	855.7554	-25.6828	318.0835	28.2667	779.7137	-0.0592	0.0182	-0.0073	-0.0462	0.0165	0.9585
36.8003	-0.70672	-0.642	0.01639	0.3838	-0.30329	-0.28584	-13.4528	844.2779	-25.1114	313.3952	27.0521	767.4028	-0.0592	0.0182	-0.0073	-0.0462	0.0165	0.9585
36.8241	-0.69451	-0.87754	0.04573	0.45996	-0.33763	-0.53549	-12.6136	827.4881	-24.7104	306.6657	25.8368	750.2497	-0.0592	0.0182	-0.0073	-0.0462	0.0165	0.9585
36.8479	-0.68461	-1.2526	0.082228	0.5834	-0.37958	-0.93288	-11.1768	807.7498	-24.4204	298.849	24.5927	730.3074	-0.0592	0.0182	-0.0073	-0.0462	0.0165	0.9585
36.8716	-0.68634	-1.781	0.11658	0.76264	-0.42306	-1.4809	-9.2162	787.4963	-24.2321	290.9072	23.3256	709.6912	-0.0592	0.0182	-0.0073	-0.0462	0.0165	0.9585
36.8954	-0.69439	-2.4686	0.13925	1.0006	-0.45727	-2.1829	-6.8056	768.7871	-24.1613	283.6446	22.0566	690.1857	-0.0592	0.0182	-0.0073	-0.0462	0.0165	0.9585
36.9192	-0.68942	-3.2927	0.13838	1.2885	-0.46194	-3.0193	-4.0036	753.1361	-24.2292	277.6474	20.8061	673.0893	-0.0592	0.0182	-0.0073	-0.0462	0.0165	0.9585
36.943	-0.63863	-4.1724	0.097353	1.597	-0.40562	-3.9172	-0.84769	741.4535	-24.4435	273.2628	19.5775	659.1727	-0.0592	0.0182	-0.0073	-0.0462	0.0165	0.9585
36.9668	-0.49244	-4.9447	-0.0037955	1.8657	-0.24703	-4.7214	2.6258	734.0547	-24.7984	270.5995	18.3656	648.7032	-0.0592	0.0182	-0.0073	-0.0462	0.0165	0.9585
36.9906	-0.19272	-5.3299	-0.18561	1.9911	0.057104	-5.163	6.3668	730.7546	-25.2926	269.5654	17.1791	641.5467	-0.0592	0.0182	-0.0073	-0.0462	0.0165	0.9585
37.0144	0.31966	-4.9009	-0.46506	1.817	0.54717	-4.8257	10.2954	730.9836	-25.9253	269.915	16.0452	637.2865	-0.0592	0.0182	-0.0073	-0.0462	0.0165	0.9585
37.0381	1.0951	-3.0763	-0.85058	1.1321	1.2507	-3.1269	14.2659	733.8276	-26.6801	271.2681	15.009	635.2641	-0.0592	0.0182	-0.0073	-0.0462	0.0165	0.9585
37.0619	2.1552	0.86143	-1.3316	-0.32229	2.1648	0.65729	18.0567	738.0705	-27.5131	273.1292	14.1267	634.6181	-0.0592	0.0182	-0.0073	-0.0462	0.0165	0.9585
37.0857	3.4632	7.6959	-1.8636	-2.8268	3.2311	7.3217	21.3992	742.2541	-28.3572	274.9149	13.4541	634.3221	-0.0592	0.0182	-0.0073	-0.0462	0.0165	0.9585
37.1095	4.8887	18.1268	-2.3504	-6.6274	4.3011	17.592	24.0269	744.7643	-29.1323	275.9908	13.0352	633.212	-0.0592	0.0182	-0.0073	-0.0462	0.0165	0.9585
37.1333	6.1581	32.5211	-2.6267	-11.8434	5.098	31.8854	25.7407	744.0205	-29.748	275.7466	12.8791	630.096	-0.0592	0.0182	-0.0073	-0.0462	0.0165	0.9585
37.1571	6.8389	50.6587	-2.4607	-18.3769	5.216	50.0615	26.488	738.7439	-30.1112	273.6978	12.9346	623.9371	-0.0592	0.0182	-0.0073	-0.0462	0.0165	0.9585
37.1809	6.6276	71.7936	-1.608	-25.938	4.2789	71.4702	26.376	728.1812	-30.156	269.5663	13.1072	614.0396	-0.0592	0.0182	-0.0073	-0.0462	0.0165	0.9585
37.2046	5.4704	94.9265	0.068113	-34.152	2.1136	95.18	25.5888	712.1786	-29.8657	263.3065	13.307	600.1462	-0.0592	0.0182	-0.0073	-0.0462	0.0165	0.9585
37.2284	3.437	119.0313	2.4014	-42.658	-1.0846	120.181	24.3287	691.153	-29.2762	255.097	13.4783	582.4426	-0.0592	0.0182	-0.0073	-0.0462	0.0165	0.9585
37.2522	0.69627	143.201	4.9014	-51.1681	-4.7383	145.532	22.7973	666.0408	-28.4509	245.3239	13.5842	561.5348	-0.0592	0.0182	-0.0073	-0.0462	0.0165	0.9585
37.276	-2.4563	166.7289	7.0915	-59.472	-8.2433	170.4394	21.1809	638.1243	-27.4603	234.5125	13.5982	538.3253	-0.0592	0.0182	-0.0073	-0.0462	0.0165	0.9585
37.2998	-5.7118	189.3023	8.7605	-67.4803	-11.2663	194.4869	19.642	608.833	-26.3896	223.2429	13.5189	513.8698	-0.0592	0.0182	-0.0073	-0.0462	0.0165	0.9585
37.3236	-8.8323	211.0661	9.9774	-75.2412	-13.7861	217.7318	18.3019	579.5174	-25.3407	212.0557	13.3759	489.2107	-0.0592	0.0182	-0.0073	-0.0462	0.0165	0.9585
37.3474	-11.6526	232.4508	10.9923	-82.8859	-15.9925	240.5208	17.2182	551.2059	-24.4	201.3561	13.2122	465.1768	-0.0592	0.0182	-0.0073	-0.0462	0.0165	0.9585
37.3711	-14.0794	254.0296	12.045	-90.5913	-18.0918	263.3398	16.3979	524.4594	-23.6218	191.3608	13.0653	442.2459	-0.0592	0.0182	-0.0073	-0.0462	0.0165	0.9585
37.3949	-16.0766	276.3418	13.2845	-98.525	-20.2162	286.6383	15.8225	499.3247	-23.0286	182.0838	12.961	420.4928	-0.0592	0.0182	-0.0073	-0.0462	0.0165	0.9585
37.4187	-17.6148	299.7509	14.8031	-106.7954	-22.4393	310.6766	15.4607	475.4073	-22.6071	173.3695	12.9037	399.6384	-0.0592	0.0182	-0.0073	-0.0462	0.0165	0.9585
37.4425	-18.648	324.3962	16.6833	-115.4337	-24.8209	335.4977	15.2574	452.0689	-22.3019	164.9706	12.872	379.208	-0.0592	0.0182	-0.0073	-0.0462	0.0165	0.9585
37.4663	-19.154	350.1652	18.9655	-124.3874	-27.392	360.9403	15.1213	428.6734	-22.0288	156.6381	12.8365	358.7324	-0.0592	0.0182	-0.0073	-0.0462	0.0165	0.9585
37.4901	-19.1627	376.6106	21.5785	-133.4976	-30.0961	386.5856	14.9214	404.7904	-21.7049	148.1945	12.7834	337.9122	-0.0592	0.0182	-0.0073	-0.0462	0.0165	0.9585
37.5139	-18.7616	402.9202	24.3327	-142.4904	-32.7793	411.7269	14.5088	380.325	-21.2692	139.58	12.7184	316.7143	-0.0592	0.0182	-0.0073	-0.0462	0.0165	0.9585
37.5376	-18.0899	428.0652	26.9695	-151.0213	-35.2329	435.5002	13.7592	355.5342	-20.6854	130.8608	12.653	295.3803	-0.0592	0.0182	-0.0073	-0.0462	0.0165	0.9585
37.5614	-17.3187	451.0631	29.2309	-158.7578	-37.254	457.1136	12.6224	330.8892	-19.9235	122.1821	12.5768	274.3117	-0.0592	0.0182	-0.0073	-0.0462	0.0165	0.9585
37.5852	-16.6147	471.2756	30.9498	-165.4732	-38.7248	476.0942	11.1753	306.8297	-18.9609	113.6791	12.4398	253.8648	-0.0592	0.0182	-0.0073	-0.0462	0.0165	0.9585
37.609	-16.0849	488.648	32.1188	-171.1362	-39.6615	492.4743	9.6229	283.5048	-17.8019	105.3829	12.167	234.1457	-0.0592	0.0182	-0.0073	-0.0462	0.0165	0.9585
37.6328	-15.7525	503.7868	32.8851	-175.949	-40.2051	506.8411	8.2152	260.6553	-16.4735	97.1797	11.6838	214.9256	-0.0592	0.0182	-0.0073	-0.0462	0.0165	0.9585
37.6566	-15.5755	517.8702	33.4836	-180.327	-40.5653	520.2622	7.1422	237.7563	-15.0136	88.8664	10.9445	195.7612	-0.0592	0.0182	-0.0073	-0.0462	0.0165	0.9585
